<svg xmlns="http://www.w3.org/2000/svg" width="70.776" height="74.699" viewBox="0 0 70.776 74.699">
  <g id="Grupo_1102785" data-name="Grupo 1102785" transform="translate(-180 -3651.217)">
    <g id="Grupo_1101175" data-name="Grupo 1101175" transform="translate(-938.395 335.237)">
      <circle id="Elipse_11528" data-name="Elipse 11528" cx="34.328" cy="34.328" r="34.328" transform="translate(1118.394 3322.022)" fill="#4045ab"/>
      <g id="Grupo_1101281" data-name="Grupo 1101281" transform="translate(1127.473 3315.979)">
        <path id="Trazado_912233" data-name="Trazado 912233" d="M246.236,7.753a1.2,1.2,0,0,0,1.2-1.2V1.2a1.2,1.2,0,0,0-2.4,0V6.553A1.2,1.2,0,0,0,246.236,7.753Z" transform="translate(-215.047)" fill="#ee4f47"/>
        <path id="Trazado_912234" data-name="Trazado 912234" d="M60.527,113.6l-2.12-2.114a4.019,4.019,0,0,0-4.756-.679l-4-3.991.195-.194a4.166,4.166,0,0,0,0-5.882,4.12,4.12,0,0,0-2.089-1.13,4.191,4.191,0,0,0,.166-1.168,4.156,4.156,0,0,0-3.306-4.071,4.191,4.191,0,0,0,.166-1.168,4.152,4.152,0,0,0-3.306-4.069,4.153,4.153,0,0,0-4.439-5.3l-7.917-1.5c-1.207-.229-2.715-.381-3.667.488a2.168,2.168,0,0,0-.182.188,4.174,4.174,0,0,0-4.379.963,4.129,4.129,0,0,0-1.216,2.942,4.2,4.2,0,0,0,.165,1.168,4.157,4.157,0,0,0-3.305,4.066,4.184,4.184,0,0,0,.166,1.171,4.162,4.162,0,0,0-2.58,6.422,4.159,4.159,0,0,0-1.6,6.88l.194.193-4,3.989a4.013,4.013,0,0,0-4.54.787L2.064,113.7a4.009,4.009,0,0,0,0,5.662l2.648,2.644a1.2,1.2,0,1,0,1.7-1.7L3.76,117.667a1.609,1.609,0,0,1,0-2.265l2.122-2.116a1.607,1.607,0,0,1,1.958-.24,1.209,1.209,0,0,0,.151.185,1.194,1.194,0,0,0,.345.24L20.5,125.62a1.182,1.182,0,0,0,.579.585,1.606,1.606,0,0,1-.067,2.191l-2.119,2.117a1.612,1.612,0,0,1-2.269,0l-2.648-2.648a1.2,1.2,0,1,0-1.7,1.7l2.65,2.65a4.018,4.018,0,0,0,5.66,0L22.71,130.1a4.013,4.013,0,0,0,.562-4.957l4.5-4.492.014-.015c.515-.532,1.949-.433,3.336-.336a17.262,17.262,0,0,0,3.157.021l4.925,4.919a4.011,4.011,0,0,0,.681,4.751L42,132.105a4.013,4.013,0,0,0,5.661,0l12.864-12.848a4.009,4.009,0,0,0,0-5.662ZM28.676,84.69l5.206.985L30.766,88.79A7.566,7.566,0,0,1,28.9,87.433,5.521,5.521,0,0,1,27.132,84.7h0a1.048,1.048,0,0,1-.005-.118A4.066,4.066,0,0,1,28.676,84.69Zm-6.085.979a1.77,1.77,0,0,1,2.24-.212,8.585,8.585,0,0,0,2.408,3.711A8.888,8.888,0,0,0,30.7,91.31,1.762,1.762,0,0,1,28,93.559h0l-5.413-5.4a1.767,1.767,0,0,1,0-2.488Zm-3.136,5.237a1.77,1.77,0,0,1,2.494,0l4.358,4.35a1.764,1.764,0,0,1-2.5,2.492h0L20.5,94.443l-.016-.015-1.034-1.034a1.761,1.761,0,0,1,0-2.489Zm-3.142,5.236a1.776,1.776,0,0,1,2.486-.008l3.317,3.315a1.762,1.762,0,0,1-2.5,2.486l-1.2-1.2h0l-2.1-2.1a1.766,1.766,0,0,1,0-2.491Zm-2.09,6.291a1.774,1.774,0,0,1,2.5,0l1.2,1.2a1.762,1.762,0,0,1-2.5,2.485l-.151-.15-.005-.006-.007-.006-1.04-1.036a1.763,1.763,0,0,1,0-2.489Zm24.458,13.64a1.2,1.2,0,0,0-1.7,0l-1.068,1.066c-1.015,1.015-2.853.887-4.631.764-1.931-.134-3.927-.273-5.219,1.054l-4.421,4.415L10.591,112.332l3.912-3.905a4.162,4.162,0,0,0,6.335-3.55c0-.01,0-.021,0-.031h.031a4.152,4.152,0,0,0,4.161-4.156c0-.01,0-.021,0-.031h.032a4.147,4.147,0,0,0,4.161-4.187h.032a4.163,4.163,0,0,0,3.552-6.328l3.429-3.428a1.761,1.761,0,0,1,.9-.48c.036,0,.071-.01.106-.016a1.759,1.759,0,0,1,1.494,2.985l-1.044,1.04-.011.01-1.2,1.2a1.2,1.2,0,1,0,1.7,1.7l1.048-1.047h0l.158-.158a1.768,1.768,0,0,1,2.491.006,1.761,1.761,0,0,1,0,2.488L40.819,95.5h0l-1.2,1.2a1.2,1.2,0,0,0,1.694,1.7l1.208-1.2a1.762,1.762,0,0,1,2.493,2.49l-2.094,2.095a1.2,1.2,0,1,0,1.7,1.7l1.026-1.027.018-.016a1.762,1.762,0,0,1,2.493,2.489l-1.043,1.042h0l-1.656,1.654a1.2,1.2,0,0,0,1.7,1.7l.81-.809,3.882,3.878-11.054,11.04-3.961-3.956a4.72,4.72,0,0,0,.788-.634l1.067-1.066a1.2,1.2,0,0,0,0-1.7Zm20.15,1.486L45.967,130.407a1.613,1.613,0,0,1-2.268,0l-2.121-2.118a1.6,1.6,0,0,1,0-2.262l12.864-12.848a1.613,1.613,0,0,1,2.269,0l2.12,2.114a1.609,1.609,0,0,1,0,2.265Z" transform="translate(0 -72.363)" fill="#ee4f47"/>
        <path id="Trazado_912235" data-name="Trazado 912235" d="M86.449,9.159a1.2,1.2,0,0,0,1.7-1.7L83.771,3.1a1.2,1.2,0,1,0-1.7,1.7Z" transform="translate(-71.197 -2.418)" fill="#ee4f47"/>
        <path id="Trazado_912236" data-name="Trazado 912236" d="M372.851,9.51a1.2,1.2,0,0,0,.848-.351l4.37-4.365a1.2,1.2,0,1,0-1.7-1.7L372,7.461a1.2,1.2,0,0,0,.848,2.049Z" transform="translate(-326.573 -2.418)" fill="#ee4f47"/>
        <path id="Trazado_912237" data-name="Trazado 912237" d="M60.274,430.552a1.2,1.2,0,0,0,.015,1.7l0,0a1.2,1.2,0,1,0-.018-1.7Z" transform="translate(-52 -378.926)" fill="#ee4f47"/>
        <path id="Trazado_912238" data-name="Trazado 912238" d="M333.713,334.519a1.2,1.2,0,1,0-.539-2.272l-.007,0a1.2,1.2,0,0,0,.546,2.269Z" transform="translate(-292.096 -292.538)" fill="#ee4f47"/>
      </g>
    </g>
  </g>
</svg>
