<svg xmlns="http://www.w3.org/2000/svg" width="68.657" height="70.662" viewBox="0 0 68.657 70.662">
  <g id="Grupo_1102781" data-name="Grupo 1102781" transform="translate(-180 -3312.45)">
    <g id="Grupo_1101171" data-name="Grupo 1101171" transform="translate(-938.394 -7.567)">
      <circle id="Elipse_11528" data-name="Elipse 11528" cx="34.328" cy="34.328" r="34.328" transform="translate(1118.394 3322.022)" fill="#4045ab"/>
      <g id="Grupo_1101263" data-name="Grupo 1101263" transform="translate(1115.157 3320.831)">
        <path id="Trazado_912222" data-name="Trazado 912222" d="M95.611,20.438a8.7,8.7,0,1,0,8.7,8.7A8.712,8.712,0,0,0,95.611,20.438Zm0,15.344a6.639,6.639,0,1,1,6.639-6.639A6.645,6.645,0,0,1,95.611,35.782Zm23.589-7a5.734,5.734,0,0,0-10.492-1.437l-7.543,12.913a.525.525,0,0,1-.609.248,17.952,17.952,0,0,0-9.886,0,.525.525,0,0,1-.609-.248L82.517,27.345a5.735,5.735,0,0,0-9.9,5.785L83.726,52.16a.482.482,0,0,1,.076.276V63.512a2.608,2.608,0,0,0,2.606,2.606h18.406a2.608,2.608,0,0,0,2.606-2.606V52.436a.485.485,0,0,1,.075-.274L118.611,33.13a5.687,5.687,0,0,0,.59-4.348Zm-2.371,3.306L105.713,51.123a2.551,2.551,0,0,0-.355,1.312V63.511a.542.542,0,0,1-.541.541H86.409a.542.542,0,0,1-.541-.541V52.435a2.556,2.556,0,0,0-.356-1.314L74.4,32.088a3.67,3.67,0,0,1,3.156-5.52,3.693,3.693,0,0,1,.944.123,3.64,3.64,0,0,1,2.239,1.694L88.277,41.3a2.579,2.579,0,0,0,2.93,1.2,15.772,15.772,0,0,1,8.813,0,2.584,2.584,0,0,0,2.928-1.2l7.543-12.913a3.67,3.67,0,0,1,6.339,3.7ZM87.247,8.673l3.4,2.464-1.3,3.987a1.866,1.866,0,0,0,2.872,2.1l3.392-2.478,3.4,2.482a1.866,1.866,0,0,0,2.869-2.09l-1.307-4,3.4-2.461a1.868,1.868,0,0,0-1.1-3.382l-4.2.008-1.291-4a1.864,1.864,0,0,0-3.55,0l-1.291,4-4.2-.01a1.869,1.869,0,0,0-1.1,3.38Zm5.44-1.305a1.865,1.865,0,0,0,1.781-1.294l1.145-3.547,1.147,3.548a1.865,1.865,0,0,0,1.783,1.294l3.732-.009L99.25,9.547a1.863,1.863,0,0,0-.682,2.1l1.161,3.55-3.014-2.2a1.862,1.862,0,0,0-2.2,0l-3.015,2.2,1.161-3.553a1.87,1.87,0,0,0-.68-2.09L88.953,7.358ZM103.1,18.15l4.056-5.121a1.032,1.032,0,1,1,1.618,1.282l-4.056,5.121A1.032,1.032,0,0,1,103.1,18.15Zm3.116,3.015,5.654-3.264a1.032,1.032,0,0,1,1.032,1.788l-5.654,3.264a1.032,1.032,0,1,1-1.032-1.788ZM82.453,14.311a1.032,1.032,0,0,1,1.618-1.282l4.056,5.121a1.032,1.032,0,1,1-1.618,1.282Zm-4.506,3.967a1.034,1.034,0,0,1,1.41-.378l5.654,3.264a1.032,1.032,0,1,1-1.032,1.788l-5.654-3.264A1.031,1.031,0,0,1,77.946,18.278Z" transform="translate(-57.499 -0.824)" fill="#ee4f47"/>
      </g>
    </g>
  </g>
</svg>
