<svg id="Grupo_1101306" data-name="Grupo 1101306" xmlns="http://www.w3.org/2000/svg" xmlns:xlink="http://www.w3.org/1999/xlink" width="143.331" height="121.56" viewBox="0 0 143.331 121.56">
  <defs>
    <clipPath id="clip-path">
      <rect id="Rectángulo_404058" data-name="Rectángulo 404058" width="143.331" height="121.56" fill="none"/>
    </clipPath>
  </defs>
  <g id="Grupo_1101305" data-name="Grupo 1101305" clip-path="url(#clip-path)">
    <path id="Trazado_912682" data-name="Trazado 912682" d="M115.67,4.819H22.491A22.492,22.492,0,0,0,0,27.31V73.9A22.476,22.476,0,0,0,20.885,96.31v25.25L46.054,96.391H115.67A22.491,22.491,0,0,0,138.161,73.9V27.31A22.491,22.491,0,0,0,115.67,4.819" fill="#36397f"/>
    <path id="Trazado_912683" data-name="Trazado 912683" d="M120.84,0H27.662A22.492,22.492,0,0,0,5.17,22.492V69.08A22.476,22.476,0,0,0,26.055,91.491v25.25L51.224,91.572H120.84A22.49,22.49,0,0,0,143.331,69.08V22.492A22.491,22.491,0,0,0,120.84,0" fill="#4045ab"/>
    <path id="Trazado_912684" data-name="Trazado 912684" d="M25.787,31.059h0A3.615,3.615,0,0,0,29.4,34.674h92.777a3.615,3.615,0,0,0,0-7.23H29.4a3.615,3.615,0,0,0-3.615,3.615" fill="#fff"/>
    <path id="Trazado_912685" data-name="Trazado 912685" d="M29.4,49.936h92.777a3.615,3.615,0,0,0,0-7.229H29.4a3.615,3.615,0,1,0,0,7.229" fill="#fff"/>
    <path id="Trazado_912686" data-name="Trazado 912686" d="M29.4,65.2h92.777a3.614,3.614,0,0,0,0-7.229H29.4a3.614,3.614,0,1,0,0,7.229" fill="#fff"/>
  </g>
</svg>
