<svg xmlns="http://www.w3.org/2000/svg" width="68.657" height="69.272" viewBox="0 0 68.657 69.272">
  <g id="Grupo_1102784" data-name="Grupo 1102784" transform="translate(-180 -3570.218)">
    <g id="Grupo_1101175" data-name="Grupo 1101175" transform="translate(-938.395 248.812)">
      <circle id="Elipse_11528" data-name="Elipse 11528" cx="34.328" cy="34.328" r="34.328" transform="translate(1118.394 3322.022)" fill="#4045ab"/>
      <g id="Grupo_1101280" data-name="Grupo 1101280" transform="translate(1127.053 3317.407)">
        <g id="Grupo_1101265" data-name="Grupo 1101265" transform="translate(25.64 4)">
          <g id="Grupo_1101264" data-name="Grupo 1101264">
            <path id="Trazado_912227" data-name="Trazado 912227" d="M254.535,4a11.11,11.11,0,0,0-11.11,11.11v.7l-3.367,9.264a.856.856,0,0,0,.8,1.145h4.273v5.128a.855.855,0,0,0,.855.855h8.546v3.419a.855.855,0,0,0,.855.855h9.4a.855.855,0,0,0,.855-.855V15.11A11.11,11.11,0,0,0,254.535,4Zm9.4,30.767h-7.692V31.348a.855.855,0,0,0-.855-.855h-8.546V25.366a.855.855,0,0,0-.855-.855h-3.906l3-8.256a.856.856,0,0,0,.051-.291V15.11a9.4,9.4,0,1,1,18.8,0Z" transform="translate(-240.007 -4)" fill="#ee4f47"/>
          </g>
        </g>
        <g id="Grupo_1101267" data-name="Grupo 1101267" transform="translate(32.724 15.016)">
          <g id="Grupo_1101266" data-name="Grupo 1101266" transform="translate(0 0)">
            <path id="Trazado_912228" data-name="Trazado 912228" d="M312.1,107.12a3.23,3.23,0,0,1-4.564,0l-1.214,1.214a4.948,4.948,0,0,0,6.991,0Z" transform="translate(-306.32 -107.12)" fill="#ee4f47"/>
          </g>
        </g>
        <g id="Grupo_1101269" data-name="Grupo 1101269" transform="translate(0 21.947)">
          <g id="Grupo_1101268" data-name="Grupo 1101268">
            <path id="Trazado_912229" data-name="Trazado 912229" d="M25.588,193.075l-3.367-9.264v-.7a11.11,11.11,0,1,0-22.22,0v20.511a.855.855,0,0,0,.855.855h9.4a.855.855,0,0,0,.855-.855V200.2h8.546a.855.855,0,0,0,.855-.855V194.22h4.273a.856.856,0,0,0,.8-1.145Zm-5.931-.564a.855.855,0,0,0-.855.855v5.128H10.256a.855.855,0,0,0-.855.855v3.419H1.709V183.11a9.4,9.4,0,1,1,18.8,0v.855a.855.855,0,0,0,.051.291l3,8.256Z" transform="translate(0 -172)" fill="#ee4f47"/>
          </g>
        </g>
        <g id="Grupo_1101271" data-name="Grupo 1101271" transform="translate(11.563 32.963)">
          <g id="Grupo_1101270" data-name="Grupo 1101270">
            <path id="Trazado_912230" data-name="Trazado 912230" d="M114.017,275.12a3.23,3.23,0,0,1-4.564,0l-1.214,1.214a4.948,4.948,0,0,0,6.991,0Z" transform="translate(-108.24 -275.12)" fill="#ee4f47"/>
          </g>
        </g>
        <g id="Grupo_1101273" data-name="Grupo 1101273" transform="translate(7.085 10.837)">
          <g id="Grupo_1101272" data-name="Grupo 1101272">
            <path id="Trazado_912231" data-name="Trazado 912231" d="M72.909,68a4.273,4.273,0,0,0-4.273,4.273v2.213l-1.1-1.111L66.32,74.589l2.564,2.564a.855.855,0,0,0,1.209,0l0,0,2.564-2.564-1.214-1.214-1.1,1.111V72.273a2.564,2.564,0,0,1,2.564-2.564H83.165V68Z" transform="translate(-66.32 -68)" fill="#ee4f47"/>
          </g>
        </g>
        <g id="Grupo_1101275" data-name="Grupo 1101275" transform="translate(25.639 10.746)">
          <g id="Grupo_1101274" data-name="Grupo 1101274" transform="translate(0 0)">
            <rect id="Rect치ngulo_404032" data-name="Rect치ngulo 404032" width="1" height="1" transform="translate(0.412 -0.073)" fill="#ee4f47"/>
          </g>
        </g>
        <g id="Grupo_1101277" data-name="Grupo 1101277" transform="translate(25.639 38.18)">
          <g id="Grupo_1101276" data-name="Grupo 1101276">
            <path id="Trazado_912232" data-name="Trazado 912232" d="M261.118,324.206a.855.855,0,0,0-1.209,0l0,0-2.564,2.564,1.214,1.214,1.1-1.111V330.8a2.564,2.564,0,0,1-2.564,2.564H240v1.709h17.093a4.273,4.273,0,0,0,4.273-4.273v-3.923l1.1,1.111,1.214-1.214Z" transform="translate(-240 -323.954)" fill="#ee4f47"/>
          </g>
        </g>
        <g id="Grupo_1101279" data-name="Grupo 1101279" transform="translate(22.798 47.676)">
          <g id="Grupo_1101278" data-name="Grupo 1101278" transform="translate(0 0)">
            <rect id="Rect치ngulo_404033" data-name="Rect치ngulo 404033" width="1" height="1" transform="translate(0.253 -0.003)" fill="#ee4f47"/>
          </g>
        </g>
      </g>
    </g>
  </g>
</svg>
