<svg xmlns="http://www.w3.org/2000/svg" width="68.657" height="74.002" viewBox="0 0 68.657 74.002">
  <g id="Grupo_1102783" data-name="Grupo 1102783" transform="translate(-180 -3486.219)">
    <g id="Grupo_1101173" data-name="Grupo 1101173" transform="translate(-938.395 169.542)">
      <circle id="Elipse_11528" data-name="Elipse 11528" cx="34.328" cy="34.328" r="34.328" transform="translate(1118.394 3322.022)" fill="#4045ab"/>
      <g id="_22-guarantee" data-name="22-guarantee" transform="translate(1116.481 3312.466)">
        <g id="linear_color" data-name="linear color" transform="translate(4.167 4.21)">
          <path id="Trazado_912223" data-name="Trazado 912223" d="M129.628,201.044H120.1v-5.393a8.869,8.869,0,0,0-.959-4.586c-1.191-2.034-3.4-3.065-6.567-3.065a1.505,1.505,0,0,0-1.505,1.505v7.726l-2.695,4.379-3.326,2.173V202.55a1.505,1.505,0,0,0-1.505-1.505H93.505A1.505,1.505,0,0,0,92,202.55v24.082a1.505,1.505,0,0,0,1.505,1.505h10.034a1.5,1.5,0,0,0,1.285-.724,5.483,5.483,0,0,0,2.729.724h20.068a4.512,4.512,0,0,0,3.782-6.978,4.641,4.641,0,0,0,.416-.366,4.509,4.509,0,0,0,.588-5.654,4.645,4.645,0,0,0,.416-.366,4.51,4.51,0,0,0,.169-6.2,4.515,4.515,0,0,0-3.363-7.527Zm-27.594,24.082H95.01V204.055h7.024Zm26.653-.442a1.5,1.5,0,0,1-1.066.442H107.553a2.511,2.511,0,0,1-2.509-2.509V207.379l5.464-3.568a1.524,1.524,0,0,0,.66-1l2.684-4.361a1.505,1.505,0,0,0,.223-.789v-6.535c2.757.469,3.01,2.335,3.01,4.528v6.9a1.505,1.505,0,0,0,1.505,1.505h11.038a1.505,1.505,0,1,1,0,3.01h-3.01a1.505,1.505,0,1,0,0,3.01h3.01a1.505,1.505,0,1,1,0,3.01h-3.01a1.505,1.505,0,1,0,0,3.01h2.007a1.505,1.505,0,0,1,0,3.01h-2.007a1.505,1.505,0,1,0,0,3.01h1a1.505,1.505,0,0,1,1.066,2.568Z" transform="translate(-80.983 -164.948)" fill="#ee4f47"/>
          <circle id="Elipse_11541" data-name="Elipse 11541" cx="1.505" cy="1.505" r="1.505" transform="translate(16.034 56.291)" fill="#ee4f47"/>
          <path id="Trazado_912224" data-name="Trazado 912224" d="M177.468,17.03l-.916,5.337a1.505,1.505,0,0,0,2.184,1.587l4.793-2.52,4.793,2.52a1.516,1.516,0,0,0,2.184-1.587l-.916-5.337,3.878-3.78a1.505,1.505,0,0,0-.834-2.567L187.276,9.9l-2.4-4.855a1.505,1.505,0,0,0-2.7,0l-2.4,4.855-5.359.779a1.505,1.505,0,0,0-.834,2.567ZM181,12.77a1.505,1.505,0,0,0,1.133-.823l1.4-2.831,1.4,2.831a1.505,1.505,0,0,0,1.133.823l3.123.454-2.26,2.2a1.505,1.505,0,0,0-.433,1.332l.534,3.111L184.23,18.4a1.505,1.505,0,0,0-1.4,0l-2.794,1.469.534-3.111a1.505,1.505,0,0,0-.433-1.332l-2.26-2.2Z" transform="translate(-151.943 -4.21)" fill="#ee4f47"/>
          <path id="Trazado_912225" data-name="Trazado 912225" d="M363.324,111.091l-4.332-3.249.22-5.411a1.505,1.505,0,0,0-2.371-1.292l-4.428,3.116-5.078-1.881a1.505,1.505,0,0,0-1.961,1.855l1.6,5.175-3.358,4.248a1.505,1.505,0,0,0,1.158,2.438l5.414.082,3,4.507a1.515,1.515,0,0,0,2.677-.348l1.751-5.124,5.214-1.463a1.505,1.505,0,0,0,.5-2.653Zm-7.285,1.431a1.505,1.505,0,0,0-1.018.963L354,116.472l-1.75-2.627a1.505,1.505,0,0,0-1.23-.671l-3.156-.048,1.958-2.476a1.505,1.505,0,0,0,.258-1.377l-.93-3.016,2.96,1.1a1.505,1.505,0,0,0,1.389-.181l2.581-1.817-.128,3.154a1.505,1.505,0,0,0,.6,1.265l2.525,1.894Z" transform="translate(-300.752 -88.743)" fill="#ee4f47"/>
          <path id="Trazado_912226" data-name="Trazado 912226" d="M23.323,116.091a1.515,1.515,0,0,0,1.158-2.438L21.123,109.4l1.6-5.175a1.505,1.505,0,0,0-1.961-1.855l-5.078,1.881-4.428-3.116a1.505,1.505,0,0,0-2.371,1.292l.22,5.411L4.77,111.091a1.505,1.505,0,0,0,.5,2.653l5.214,1.463,1.751,5.124a1.515,1.515,0,0,0,2.677.348l3-4.507Zm-7.481-2.245-1.75,2.626-1.021-2.987a1.505,1.505,0,0,0-1.018-.963l-3.039-.853,2.525-1.894a1.505,1.505,0,0,0,.6-1.265l-.128-3.154,2.581,1.817a1.505,1.505,0,0,0,1.389.181l2.96-1.1-.93,3.016a1.505,1.505,0,0,0,.257,1.377l1.958,2.476-3.156.048a1.505,1.505,0,0,0-1.23.671Z" transform="translate(-4.167 -88.743)" fill="#ee4f47"/>
        </g>
      </g>
    </g>
  </g>
</svg>
