<svg id="Grupo_1102771" data-name="Grupo 1102771" xmlns="http://www.w3.org/2000/svg" xmlns:xlink="http://www.w3.org/1999/xlink" width="411.079" height="440.514" viewBox="0 0 411.079 440.514">
  <defs>
    <clipPath id="clip-path">
      <rect id="Rectángulo_404165" data-name="Rectángulo 404165" width="411.079" height="440.514" fill="none"/>
    </clipPath>
    <clipPath id="clip-path-3">
      <rect id="Rectángulo_404127" data-name="Rectángulo 404127" width="330.455" height="219.695" transform="translate(43.048 172.636)" fill="none"/>
    </clipPath>
    <clipPath id="clip-path-4">
      <rect id="Rectángulo_404128" data-name="Rectángulo 404128" width="78.5" height="3.833" transform="translate(166.289 377.171)" fill="none"/>
    </clipPath>
    <clipPath id="clip-path-5">
      <rect id="Rectángulo_404131" data-name="Rectángulo 404131" width="300.16" height="184.55" transform="translate(57.049 187.591)" fill="#f6ccb3"/>
    </clipPath>
    <clipPath id="clip-path-6">
      <rect id="Rectángulo_404132" data-name="Rectángulo 404132" width="52.038" height="9.586" transform="translate(278.845 335.575)" fill="none"/>
    </clipPath>
    <clipPath id="clip-path-7">
      <rect id="Rectángulo_404133" data-name="Rectángulo 404133" width="48.608" height="48.608" transform="translate(68.638 197.971)" fill="none"/>
    </clipPath>
    <clipPath id="clip-path-8">
      <rect id="Rectángulo_404143" data-name="Rectángulo 404143" width="390.388" height="30.298" transform="translate(10.35 391.417)" fill="none"/>
    </clipPath>
    <clipPath id="clip-path-9">
      <rect id="Rectángulo_404144" data-name="Rectángulo 404144" width="329.032" height="15.996" transform="translate(44.587 397.512)" fill="none"/>
    </clipPath>
    <clipPath id="clip-path-10">
      <rect id="Rectángulo_404145" data-name="Rectángulo 404145" width="35.196" height="18.131" transform="translate(187.139 91.362)" fill="none"/>
    </clipPath>
    <clipPath id="clip-path-11">
      <rect id="Rectángulo_404146" data-name="Rectángulo 404146" width="47.794" height="26.539" transform="translate(8.441 167.9)" fill="none"/>
    </clipPath>
    <clipPath id="clip-path-12">
      <rect id="Rectángulo_404147" data-name="Rectángulo 404147" width="20.608" height="7.861" transform="translate(6.178 179.617)" fill="none"/>
    </clipPath>
    <clipPath id="clip-path-13">
      <rect id="Rectángulo_404148" data-name="Rectángulo 404148" width="18.059" height="78.717" transform="translate(136.041 155.423)" fill="none"/>
    </clipPath>
    <clipPath id="clip-path-14">
      <rect id="Rectángulo_404149" data-name="Rectángulo 404149" width="10.94" height="17.053" transform="translate(114.283 202.092)" fill="none"/>
    </clipPath>
    <clipPath id="clip-path-15">
      <rect id="Rectángulo_404150" data-name="Rectángulo 404150" width="47.794" height="26.539" transform="translate(354.844 167.9)" fill="none"/>
    </clipPath>
    <clipPath id="clip-path-16">
      <rect id="Rectángulo_404151" data-name="Rectángulo 404151" width="20.607" height="7.861" transform="translate(384.294 179.617)" fill="none"/>
    </clipPath>
    <clipPath id="clip-path-17">
      <rect id="Rectángulo_404152" data-name="Rectángulo 404152" width="18.059" height="78.717" transform="translate(256.979 155.423)" fill="none"/>
    </clipPath>
    <clipPath id="clip-path-18">
      <rect id="Rectángulo_404153" data-name="Rectángulo 404153" width="10.939" height="17.053" transform="translate(285.856 202.092)" fill="none"/>
    </clipPath>
    <clipPath id="clip-path-19">
      <rect id="Rectángulo_404154" data-name="Rectángulo 404154" width="9.739" height="7.688" transform="translate(199.435 136.515)" fill="none"/>
    </clipPath>
    <clipPath id="clip-path-20">
      <rect id="Rectángulo_404155" data-name="Rectángulo 404155" width="29.526" height="120.399" transform="translate(188.56 122.464)" fill="none"/>
    </clipPath>
    <clipPath id="clip-path-21">
      <rect id="Rectángulo_404156" data-name="Rectángulo 404156" width="51.033" height="36.343" transform="translate(178.918 105.244)" fill="none"/>
    </clipPath>
    <clipPath id="clip-path-22">
      <rect id="Rectángulo_404157" data-name="Rectángulo 404157" width="51.324" height="36.343" transform="translate(178.918 101.244)" fill="none"/>
    </clipPath>
    <clipPath id="clip-path-23">
      <rect id="Rectángulo_404158" data-name="Rectángulo 404158" width="51.389" height="18.853" transform="translate(178.166 56.921)" fill="none"/>
    </clipPath>
    <clipPath id="clip-path-24">
      <rect id="Rectángulo_404159" data-name="Rectángulo 404159" width="22.166" height="23.084" transform="translate(219.624 73.614)" fill="none"/>
    </clipPath>
    <clipPath id="clip-path-25">
      <rect id="Rectángulo_404160" data-name="Rectángulo 404160" width="8.2" height="5.192" transform="translate(161.104 52.076)" fill="none"/>
    </clipPath>
    <clipPath id="clip-path-26">
      <rect id="Rectángulo_404161" data-name="Rectángulo 404161" width="12.67" height="19.536" transform="translate(160.196 59.349)" fill="none"/>
    </clipPath>
    <clipPath id="clip-path-27">
      <rect id="Rectángulo_404162" data-name="Rectángulo 404162" width="8.582" height="4.393" transform="translate(238.884 48.306)" fill="none"/>
    </clipPath>
    <clipPath id="clip-path-28">
      <rect id="Rectángulo_404163" data-name="Rectángulo 404163" width="10.722" height="20.401" transform="translate(237.914 54.67)" fill="none"/>
    </clipPath>
  </defs>
  <g id="Grupo_1102770" data-name="Grupo 1102770" clip-path="url(#clip-path)">
    <g id="Grupo_1102769" data-name="Grupo 1102769">
      <g id="Grupo_1102768" data-name="Grupo 1102768" clip-path="url(#clip-path)">
        <path id="Trazado_912722" data-name="Trazado 912722" d="M356.552,392.326,56.618,391.4A12.391,12.391,0,0,1,44.265,379.09L43.046,190.258c-.044-6.794,1.326-18.337,14-17.587l303.856,0A12.39,12.39,0,0,1,373.5,185.35l-4.52,194.872a12.391,12.391,0,0,1-12.426,12.1" fill="#242754"/>
        <g id="Grupo_1102692" data-name="Grupo 1102692" opacity="0.5" style="mix-blend-mode: soft-light;isolation: isolate">
          <g id="Grupo_1102691" data-name="Grupo 1102691">
            <g id="Grupo_1102690" data-name="Grupo 1102690" clip-path="url(#clip-path-3)">
              <path id="Trazado_912723" data-name="Trazado 912723" d="M373.5,185.351l-4.52,194.87a12.4,12.4,0,0,1-12.43,12.11l-299.93-.93a12.39,12.39,0,0,1-12.35-12.31l-1.22-188.83c-.05-6.8,1.32-18.34,14-17.59H360.9a12.394,12.394,0,0,1,12.6,12.68" fill="#fff"/>
            </g>
          </g>
        </g>
        <g id="Grupo_1102695" data-name="Grupo 1102695" opacity="0.5" style="mix-blend-mode: soft-light;isolation: isolate">
          <g id="Grupo_1102694" data-name="Grupo 1102694">
            <g id="Grupo_1102693" data-name="Grupo 1102693" clip-path="url(#clip-path-4)">
              <path id="Trazado_912724" data-name="Trazado 912724" d="M242.873,381.005H168.206a1.917,1.917,0,0,1,0-3.833h74.667a1.917,1.917,0,1,1,0,3.833" fill="#fff"/>
            </g>
          </g>
        </g>
        <path id="Trazado_912725" data-name="Trazado 912725" d="M367.1,386.5a12.385,12.385,0,0,1-10.55,5.83l-299.93-.93a12.35,12.35,0,0,1-9.83-4.9Z" fill="#242754"/>
        <rect id="Rectángulo_404129" data-name="Rectángulo 404129" width="300.16" height="184.55" transform="translate(57.049 187.591)" fill="#fff"/>
        <g id="Grupo_1102698" data-name="Grupo 1102698" opacity="0.6">
          <g id="Grupo_1102697" data-name="Grupo 1102697">
            <g id="Grupo_1102696" data-name="Grupo 1102696" clip-path="url(#clip-path-5)">
              <rect id="Rectángulo_404130" data-name="Rectángulo 404130" width="300.16" height="184.55" transform="translate(57.049 187.591)" fill="#f6ccb3"/>
            </g>
          </g>
        </g>
        <path id="Trazado_912726" data-name="Trazado 912726" d="M345.545,347.561H278.178a3.006,3.006,0,0,1-3.006-3.006v-8.378a3.006,3.006,0,0,1,3.006-3.006h67.367a3.006,3.006,0,0,1,3.006,3.006v8.378a3.006,3.006,0,0,1-3.006,3.006" fill="#ffbd45"/>
        <path id="Trazado_912727" data-name="Trazado 912727" d="M344.839,339.277c.011-.011.02-.024.039-.047l-.66-.1-2.115-.309c-.2-.029-.395-.062-.593-.084a.18.18,0,0,1-.161-.114q-.725-1.48-1.454-2.956c-.01-.021-.022-.042-.037-.068l-.017-.03-.176.35c-.449.908-.9,1.817-1.348,2.724a.181.181,0,0,1-.114.085q-1.65.243-3.3.478c-.029,0-.058.012-.077.016.14.147.277.3.424.442.549.539,1.1,1.074,1.651,1.611.12.117.243.229.357.351a.185.185,0,0,1,.045.136q-.246,1.455-.5,2.908c-.026.151-.05.3-.079.48l.79-.414q1.114-.585,2.229-1.173a.179.179,0,0,1,.189,0q1.452.77,2.906,1.532c.028.015.058.029.1.048a.65.65,0,0,0,0-.1q-.228-1.334-.457-2.667c-.035-.2-.068-.406-.106-.609a.153.153,0,0,1,.058-.153q1.2-1.168,2.408-2.339" fill="#fff"/>
        <g id="Grupo_1102701" data-name="Grupo 1102701" style="mix-blend-mode: multiply;isolation: isolate">
          <g id="Grupo_1102700" data-name="Grupo 1102700">
            <g id="Grupo_1102699" data-name="Grupo 1102699" clip-path="url(#clip-path-6)">
              <path id="Trazado_912728" data-name="Trazado 912728" d="M288.239,339.143c.214.03.432.064.659.1-.017.022-.03.034-.038.047-.8.779-1.6,1.558-2.409,2.338a.149.149,0,0,0-.056.154c.038.2.068.406.1.607.154.89.308,1.781.458,2.667a.861.861,0,0,1,0,.1c-.038-.021-.068-.034-.1-.051q-1.452-.764-2.907-1.532a.175.175,0,0,0-.188.005c-.74.389-1.485.779-2.229,1.173-.253.132-.51.265-.788.411.026-.176.052-.33.077-.48.167-.967.338-1.939.5-2.91a.157.157,0,0,0-.047-.133c-.111-.124-.235-.235-.355-.351l-1.652-1.613c-.146-.141-.283-.295-.424-.441.021,0,.047-.012.077-.017l3.3-.475a.2.2,0,0,0,.115-.086c.454-.907.9-1.815,1.348-2.722.055-.116.111-.227.175-.351a.092.092,0,0,1,.017.03.613.613,0,0,1,.039.064c.484.989.972,1.973,1.456,2.957a.176.176,0,0,0,.158.116c.2.021.4.055.6.085l2.114.308" fill="#a7e0e5"/>
              <path id="Trazado_912729" data-name="Trazado 912729" d="M302.234,339.14c.214.03.432.064.659.1a.5.5,0,0,1-.038.047q-1.2,1.168-2.41,2.338a.15.15,0,0,0-.055.154c.038.2.068.406.1.607q.231,1.336.458,2.667a.862.862,0,0,1,0,.1c-.038-.021-.068-.034-.1-.051q-1.452-.764-2.907-1.532a.175.175,0,0,0-.188.005q-1.11.583-2.23,1.173l-.787.411c.026-.176.052-.33.077-.48.167-.967.338-1.938.5-2.91a.17.17,0,0,0-.042-.133c-.116-.124-.24-.235-.36-.351-.548-.539-1.1-1.074-1.652-1.613-.146-.141-.283-.295-.424-.44.021-.005.051-.013.077-.018l3.3-.475a.184.184,0,0,0,.115-.086c.454-.907.9-1.815,1.348-2.722.055-.116.115-.227.175-.351a.092.092,0,0,1,.017.03c.017.026.03.047.039.064.484.989.972,1.973,1.455,2.957a.179.179,0,0,0,.159.116c.2.021.4.055.6.085l2.114.308" fill="#a7e0e5"/>
              <path id="Trazado_912730" data-name="Trazado 912730" d="M316.229,339.138c.214.03.432.064.659.1a.5.5,0,0,1-.038.047q-1.2,1.169-2.41,2.338a.158.158,0,0,0-.055.154c.038.2.068.406.1.607q.231,1.337.458,2.667a.861.861,0,0,1,0,.1c-.038-.021-.068-.034-.1-.051q-1.452-.764-2.907-1.532a.175.175,0,0,0-.188.005c-.74.389-1.485.779-2.229,1.173-.253.133-.51.265-.788.411.03-.176.051-.33.077-.48.167-.967.338-1.938.5-2.91a.171.171,0,0,0-.043-.133c-.115-.124-.239-.235-.359-.351-.548-.539-1.1-1.074-1.652-1.613-.146-.141-.283-.3-.424-.44.021-.005.051-.013.077-.018l3.3-.475a.184.184,0,0,0,.115-.086c.454-.907.9-1.815,1.348-2.722.055-.116.115-.227.175-.351a.092.092,0,0,1,.017.03c.017.026.03.047.039.064.484.989.972,1.973,1.455,2.957a.178.178,0,0,0,.159.116c.2.021.4.055.6.085l2.114.308" fill="#a7e0e5"/>
              <path id="Trazado_912731" data-name="Trazado 912731" d="M330.844,339.281c.013-.013.021-.026.039-.047-.227-.034-.446-.069-.66-.1l-2.114-.308c-.2-.03-.394-.064-.6-.086a.174.174,0,0,1-.158-.115c-.484-.985-.972-1.969-1.456-2.957a.5.5,0,0,0-.038-.065s-.005,0-.005-.008a.108.108,0,0,0-.012-.022c-.06.125-.12.236-.176.351-.449.908-.894,1.815-1.347,2.723a.184.184,0,0,1-.116.085l-3.3.476c-.025,0-.055.013-.077.017.141.146.279.3.424.441.552.539,1.1,1.074,1.652,1.613.12.116.244.227.36.351a.175.175,0,0,1,.043.133c-.163.971-.334,1.943-.5,2.91-.026.15-.047.3-.077.479.278-.145.535-.278.787-.411.745-.394,1.489-.783,2.23-1.173a.218.218,0,0,1,.111-.03.386.386,0,0,1,.077.026q1.457.77,2.906,1.531c.03.018.06.03.1.052a.7.7,0,0,0,0-.1c-.149-.886-.3-1.776-.458-2.666-.034-.2-.064-.407-.1-.608a.16.16,0,0,1,.056-.154q1.206-1.169,2.409-2.337" fill="#a7e0e5"/>
            </g>
          </g>
        </g>
        <g id="Grupo_1102704" data-name="Grupo 1102704" style="mix-blend-mode: multiply;isolation: isolate">
          <g id="Grupo_1102703" data-name="Grupo 1102703">
            <g id="Grupo_1102702" data-name="Grupo 1102702" clip-path="url(#clip-path-7)">
              <path id="Trazado_912732" data-name="Trazado 912732" d="M117.246,222.275a24.3,24.3,0,1,1-24.3-24.3,24.3,24.3,0,0,1,24.3,24.3" fill="#a7e0e5"/>
            </g>
          </g>
        </g>
        <path id="Trazado_912733" data-name="Trazado 912733" d="M100.386,216.1a7.444,7.444,0,1,1-7.443-7.443,7.443,7.443,0,0,1,7.443,7.443" fill="#fff"/>
        <path id="Trazado_912734" data-name="Trazado 912734" d="M106.314,233.836H79.57a14.591,14.591,0,0,1,26.744,0" fill="#fff"/>
        <path id="Trazado_912735" data-name="Trazado 912735" d="M122.769,314.49H73.988l-5.349-4.943v17.764a4.027,4.027,0,0,0,3.912,4.133h50.218a4.027,4.027,0,0,0,3.912-4.133v-8.688a4.027,4.027,0,0,0-3.912-4.133" fill="#fff"/>
        <rect id="Rectángulo_404134" data-name="Rectángulo 404134" width="51.47" height="1.25" transform="translate(71.739 318.421)" fill="#a7e0e5"/>
        <rect id="Rectángulo_404135" data-name="Rectángulo 404135" width="51.47" height="1.25" transform="translate(71.739 322.342)" fill="#a7e0e5"/>
        <rect id="Rectángulo_404136" data-name="Rectángulo 404136" width="11.398" height="1.25" transform="translate(71.74 326.262)" fill="#a7e0e5"/>
        <path id="Trazado_912736" data-name="Trazado 912736" d="M72.55,342.634h48.781l5.35-4.943v17.764a4.027,4.027,0,0,1-3.913,4.133H72.55a4.027,4.027,0,0,1-3.912-4.133v-8.688a4.027,4.027,0,0,1,3.912-4.133" fill="#ffbd45"/>
        <rect id="Rectángulo_404137" data-name="Rectángulo 404137" width="51.47" height="1.25" transform="translate(72.11 346.565)" fill="#fff"/>
        <rect id="Rectángulo_404138" data-name="Rectángulo 404138" width="51.47" height="1.25" transform="translate(72.11 350.486)" fill="#fff"/>
        <rect id="Rectángulo_404139" data-name="Rectángulo 404139" width="30.906" height="1.25" transform="translate(72.11 354.406)" fill="#fff"/>
        <path id="Trazado_912737" data-name="Trazado 912737" d="M342.181,233.978H280.014a4.842,4.842,0,0,1-4.842-4.842V207.313a4.842,4.842,0,0,1,4.842-4.842h62.167a4.842,4.842,0,0,1,4.842,4.842v21.823a4.842,4.842,0,0,1-4.842,4.842" fill="#fff"/>
        <rect id="Rectángulo_404140" data-name="Rectángulo 404140" width="61.151" height="2.5" transform="translate(281.289 208.171)" fill="#a7e0e5"/>
        <rect id="Rectángulo_404141" data-name="Rectángulo 404141" width="61.151" height="2.5" transform="translate(281.289 215.724)" fill="#a7e0e5"/>
        <rect id="Rectángulo_404142" data-name="Rectángulo 404142" width="61.151" height="2.5" transform="translate(281.289 223.278)" fill="#a7e0e5"/>
        <path id="Trazado_912738" data-name="Trazado 912738" d="M342.181,259.131H280.014a4.842,4.842,0,0,1-4.842-4.842v-3.338a4.842,4.842,0,0,1,4.842-4.843h62.167a4.842,4.842,0,0,1,4.842,4.843v3.338a4.842,4.842,0,0,1-4.842,4.842" fill="#ffbd45"/>
        <path id="Trazado_912739" data-name="Trazado 912739" d="M342.181,282.019H280.014a4.842,4.842,0,0,1-4.842-4.842v-3.338A4.842,4.842,0,0,1,280.014,269h62.167a4.842,4.842,0,0,1,4.842,4.843v3.338a4.842,4.842,0,0,1-4.842,4.842" fill="#ffbd45"/>
        <path id="Trazado_912740" data-name="Trazado 912740" d="M342.181,304.907H280.014a4.842,4.842,0,0,1-4.842-4.842v-3.338a4.842,4.842,0,0,1,4.842-4.843h62.167a4.842,4.842,0,0,1,4.842,4.843v3.338a4.842,4.842,0,0,1-4.842,4.842" fill="#ffbd45"/>
        <path id="Trazado_912741" data-name="Trazado 912741" d="M402.3,424.4c0,.951-.693,10.538-5.23,13.54a15.719,15.719,0,0,1-8.656,2.575L23.345,440.3a15.109,15.109,0,0,1-8.141-2.387c-4.616-2.952-6.429-8.31-6.429-14.114a1.69,1.69,0,0,1,.713-1.367l.862-.713,34.112-27.763a11.194,11.194,0,0,1,7.111-2.535H364.22a11.246,11.246,0,0,1,7.735,3.08l28.783,27.218.416.4A4.95,4.95,0,0,1,402.3,424.4" fill="#242754"/>
        <g id="Grupo_1102707" data-name="Grupo 1102707" opacity="0.5" style="mix-blend-mode: soft-light;isolation: isolate">
          <g id="Grupo_1102706" data-name="Grupo 1102706">
            <g id="Grupo_1102705" data-name="Grupo 1102705" clip-path="url(#clip-path-8)">
              <path id="Trazado_912742" data-name="Trazado 912742" d="M400.738,421.715H10.35l34.111-27.762a11.194,11.194,0,0,1,7.112-2.536H364.22a11.246,11.246,0,0,1,7.735,3.08Z" fill="#fff"/>
            </g>
          </g>
        </g>
        <path id="Trazado_912743" data-name="Trazado 912743" d="M386.148,417.842H29l23.093-22.557h310.45Z" fill="#242754"/>
        <path id="Trazado_912744" data-name="Trazado 912744" d="M73.535,400.354,57.047,400.3l3.129-2.783,16.116.045Z" fill="#242754"/>
        <path id="Trazado_912745" data-name="Trazado 912745" d="M62.548,411.5l-17.96-.116,3.726-3.315,17.52.1Z" fill="#242754"/>
        <path id="Trazado_912746" data-name="Trazado 912746" d="M92.282,411.689l-18.239-.118,3-3.345,17.786.1Z" fill="#242754"/>
        <path id="Trazado_912747" data-name="Trazado 912747" d="M122.481,411.885l-18.524-.12,2.257-3.375,18.057.1Z" fill="#242754"/>
        <path id="Trazado_912748" data-name="Trazado 912748" d="M309.09,413.091l-20.337-.131-2.6-3.564,19.774.11Z" fill="#242754"/>
        <path id="Trazado_912749" data-name="Trazado 912749" d="M341.1,413.3l-20.656-.133-3.483-3.6,20.077.113Z" fill="#242754"/>
        <path id="Trazado_912750" data-name="Trazado 912750" d="M373.619,413.508l-20.983-.136-4.388-3.629,21.5-.175Z" fill="#242754"/>
        <path id="Trazado_912751" data-name="Trazado 912751" d="M272.955,412.857l-138.617-.9,1.489-3.406,134.956.755Z" fill="#242754"/>
        <path id="Trazado_912752" data-name="Trazado 912752" d="M111.841,405.69,94.286,405.6l2.384-3.06,17.135.07Z" fill="#242754"/>
        <path id="Trazado_912753" data-name="Trazado 912753" d="M140.166,405.829l-17.811-.087,1.71-3.086,17.378.071Z" fill="#242754"/>
        <path id="Trazado_912754" data-name="Trazado 912754" d="M168.907,405.969l-18.073-.088,1.016-3.111,17.628.072Z" fill="#242754"/>
        <path id="Trazado_912755" data-name="Trazado 912755" d="M198.073,406.112l-18.341-.09.3-3.137,17.882.074Z" fill="#242754"/>
        <path id="Trazado_912756" data-name="Trazado 912756" d="M227.673,406.256l-18.615-.091L208.625,403l18.143.074Z" fill="#242754"/>
        <path id="Trazado_912757" data-name="Trazado 912757" d="M257.719,406.4l-18.894-.092-1.19-3.19,18.408.075Z" fill="#242754"/>
        <path id="Trazado_912758" data-name="Trazado 912758" d="M288.218,406.552l-19.181-.094-1.969-3.217,18.68.077Z" fill="#242754"/>
        <path id="Trazado_912759" data-name="Trazado 912759" d="M319.183,406.7l-19.474-.1-2.772-3.245,18.958.078Z" fill="#242754"/>
        <path id="Trazado_912760" data-name="Trazado 912760" d="M366.8,406.936l-35.946-.176-3.6-3.273,36.559.15Z" fill="#242754"/>
        <path id="Trazado_912761" data-name="Trazado 912761" d="M100.8,400.451l-16.722-.059,2.519-2.8,16.34.046Z" fill="#242754"/>
        <path id="Trazado_912762" data-name="Trazado 912762" d="M88.156,405.574l-36.84-.18,3.4-3.022,35.973.147Z" fill="#242754"/>
        <path id="Trazado_912763" data-name="Trazado 912763" d="M128.459,400.549l-16.961-.06,1.891-2.827,16.568.047Z" fill="#242754"/>
        <path id="Trazado_912764" data-name="Trazado 912764" d="M156.514,400.649l-17.205-.061,1.245-2.849,16.8.047Z" fill="#242754"/>
        <path id="Trazado_912765" data-name="Trazado 912765" d="M184.974,400.75l-17.454-.062.58-2.871,17.038.048Z" fill="#242754"/>
        <path id="Trazado_912766" data-name="Trazado 912766" d="M213.85,400.852l-17.71-.063-.1-2.894,17.282.049Z" fill="#242754"/>
        <path id="Trazado_912767" data-name="Trazado 912767" d="M243.15,400.956l-17.97-.064-.807-2.917,17.53.049Z" fill="#242754"/>
        <path id="Trazado_912768" data-name="Trazado 912768" d="M272.884,401.062,254.648,401l-1.532-2.941,17.784.051Z" fill="#242754"/>
        <path id="Trazado_912769" data-name="Trazado 912769" d="M303.062,401.169l-18.509-.066-2.276-2.964,18.042.051Z" fill="#242754"/>
        <path id="Trazado_912770" data-name="Trazado 912770" d="M333.693,401.277l-18.787-.067-3.044-2.989,18.307.052Z" fill="#242754"/>
        <path id="Trazado_912771" data-name="Trazado 912771" d="M362.475,401.388,343.4,401.32l-3.834-3.013,20.031.056Z" fill="#242754"/>
        <g id="Grupo_1102710" data-name="Grupo 1102710" opacity="0.5" style="mix-blend-mode: soft-light;isolation: isolate">
          <g id="Grupo_1102709" data-name="Grupo 1102709">
            <g id="Grupo_1102708" data-name="Grupo 1102708" clip-path="url(#clip-path-9)">
              <path id="Trazado_912772" data-name="Trazado 912772" d="M73.535,400.354,57.047,400.3l3.129-2.783,16.116.045Z" fill="#fff"/>
              <path id="Trazado_912773" data-name="Trazado 912773" d="M62.548,411.5l-17.96-.116,3.726-3.315,17.52.1Z" fill="#fff"/>
              <path id="Trazado_912774" data-name="Trazado 912774" d="M92.282,411.689l-18.239-.118,3-3.345,17.786.1Z" fill="#fff"/>
              <path id="Trazado_912775" data-name="Trazado 912775" d="M122.481,411.885l-18.524-.12,2.257-3.375,18.057.1Z" fill="#fff"/>
              <path id="Trazado_912776" data-name="Trazado 912776" d="M309.09,413.091l-20.337-.131-2.6-3.564,19.774.11Z" fill="#fff"/>
              <path id="Trazado_912777" data-name="Trazado 912777" d="M341.1,413.3l-20.656-.133-3.483-3.6,20.077.113Z" fill="#fff"/>
              <path id="Trazado_912778" data-name="Trazado 912778" d="M373.619,413.508l-20.983-.136-4.388-3.629,21.5-.175Z" fill="#fff"/>
              <path id="Trazado_912779" data-name="Trazado 912779" d="M272.955,412.857l-138.617-.9,1.489-3.406,134.956.755Z" fill="#fff"/>
              <path id="Trazado_912780" data-name="Trazado 912780" d="M111.841,405.69,94.286,405.6l2.384-3.06,17.135.07Z" fill="#fff"/>
              <path id="Trazado_912781" data-name="Trazado 912781" d="M140.166,405.829l-17.811-.087,1.71-3.086,17.378.071Z" fill="#fff"/>
              <path id="Trazado_912782" data-name="Trazado 912782" d="M168.907,405.969l-18.073-.088,1.016-3.111,17.628.072Z" fill="#fff"/>
              <path id="Trazado_912783" data-name="Trazado 912783" d="M198.073,406.112l-18.341-.09.3-3.137,17.882.074Z" fill="#fff"/>
              <path id="Trazado_912784" data-name="Trazado 912784" d="M227.673,406.256l-18.615-.091L208.625,403l18.143.074Z" fill="#fff"/>
              <path id="Trazado_912785" data-name="Trazado 912785" d="M257.719,406.4l-18.894-.092-1.19-3.19,18.408.075Z" fill="#fff"/>
              <path id="Trazado_912786" data-name="Trazado 912786" d="M288.218,406.552l-19.181-.094-1.969-3.217,18.68.077Z" fill="#fff"/>
              <path id="Trazado_912787" data-name="Trazado 912787" d="M319.183,406.7l-19.474-.1-2.772-3.245,18.958.078Z" fill="#fff"/>
              <path id="Trazado_912788" data-name="Trazado 912788" d="M366.8,406.936l-35.946-.176-3.6-3.273,36.559.15Z" fill="#fff"/>
              <path id="Trazado_912789" data-name="Trazado 912789" d="M100.8,400.451l-16.722-.059,2.519-2.8,16.34.046Z" fill="#fff"/>
              <path id="Trazado_912790" data-name="Trazado 912790" d="M88.156,405.574l-36.84-.18,3.4-3.022,35.973.147Z" fill="#fff"/>
              <path id="Trazado_912791" data-name="Trazado 912791" d="M128.459,400.549l-16.961-.06,1.891-2.827,16.568.047Z" fill="#fff"/>
              <path id="Trazado_912792" data-name="Trazado 912792" d="M156.514,400.649l-17.205-.061,1.245-2.849,16.8.047Z" fill="#fff"/>
              <path id="Trazado_912793" data-name="Trazado 912793" d="M184.974,400.75l-17.454-.062.58-2.871,17.038.048Z" fill="#fff"/>
              <path id="Trazado_912794" data-name="Trazado 912794" d="M213.85,400.852l-17.71-.063-.1-2.894,17.282.049Z" fill="#fff"/>
              <path id="Trazado_912795" data-name="Trazado 912795" d="M243.15,400.956l-17.97-.064-.807-2.917,17.53.049Z" fill="#fff"/>
              <path id="Trazado_912796" data-name="Trazado 912796" d="M272.884,401.062,254.648,401l-1.532-2.941,17.784.051Z" fill="#fff"/>
              <path id="Trazado_912797" data-name="Trazado 912797" d="M303.062,401.169l-18.509-.066-2.276-2.964,18.042.051Z" fill="#fff"/>
              <path id="Trazado_912798" data-name="Trazado 912798" d="M333.693,401.277l-18.787-.067-3.044-2.989,18.307.052Z" fill="#fff"/>
              <path id="Trazado_912799" data-name="Trazado 912799" d="M362.475,401.388,343.4,401.32l-3.834-3.013,20.031.056Z" fill="#fff"/>
            </g>
          </g>
        </g>
        <path id="Trazado_912800" data-name="Trazado 912800" d="M267.245,372.141H132.978l20.645-104.1,104.649-1.1Z" fill="#242754"/>
        <path id="Trazado_912801" data-name="Trazado 912801" d="M266.16,136.077s-10.824-20.115-36.21-28.981c-11.015-5.131-12.193-4.912-24.411-6.2-12.218,1.285-13.4,1.066-24.411,6.2-25.386,8.866-36.21,28.981-36.21,28.981s-3.734-2.108,1.723,14.771c.645,1.939,1.24,4,1.785,6.128a95.506,95.506,0,0,1,1.861,9.5c0,.044.025.089.025.166.114.854.215,1.7.329,2.572.216,1.584.342,3.191.456,4.854.1,1.551.19,3.114.215,4.721.026,1.186-1.923,88.729-1.923,88.729,9.521,16.688,100.043,16.688,112.3,0,0,0-1.948-87.543-1.923-88.729.025-1.607.114-3.17.215-4.721.114-1.663.241-3.27.456-4.854.114-.876.215-1.718.329-2.572,0-.077.025-.122.025-.166a96.09,96.09,0,0,1,1.861-9.5c.545-2.127,1.14-4.189,1.786-6.128,5.456-16.879,1.722-14.771,1.722-14.771" fill="#5b5bb5"/>
        <path id="Trazado_912802" data-name="Trazado 912802" d="M226.7,108.372s-13.96,20.561-21.74,22.121-23.83-22.121-23.83-22.121,3.99-2.25,5.57-8.359c.04-.171.08-.33.12-.5a16.36,16.36,0,0,0,.32-1.69,24.786,24.786,0,0,0,.01-6.46h35s-.03.28-.08.78c-.01.27-.03.62-.04,1.03a28.627,28.627,0,0,0,.44,6.31c.01.03.01.06.02.09a16.829,16.829,0,0,0,4.21,8.8" fill="#b87b6e"/>
        <g id="Grupo_1102713" data-name="Grupo 1102713" opacity="0.5" style="mix-blend-mode: multiply;isolation: isolate">
          <g id="Grupo_1102712" data-name="Grupo 1102712">
            <g id="Grupo_1102711" data-name="Grupo 1102711" clip-path="url(#clip-path-10)">
              <path id="Trazado_912803" data-name="Trazado 912803" d="M204.649,109.492c-6.74.1-17.59-11.079-17.51-11.669a24.787,24.787,0,0,0,.01-6.46h35s-.03.28-.08.78c-.01.27-.03.62-.04,1.03-.038.966.157,3.307.3,4.875.083.879-11.075,11.345-17.685,11.444" fill="#b87b6e"/>
            </g>
          </g>
        </g>
        <path id="Trazado_912804" data-name="Trazado 912804" d="M118.22,237.052c.453-7.582.084-14.834,3.557-21.94a20.906,20.906,0,0,1,1.5-2.6c-2.737.547-4.377.872-4.377.872l-71.64-31.332c-5.487,2.785-7.23,11.966-7.23,11.966s66.469,45.264,77.284,45.654c.3.011.637.012,1.009.006a13.6,13.6,0,0,1-.1-2.631" fill="#b87b6e"/>
        <path id="Trazado_912805" data-name="Trazado 912805" d="M56.231,194.354c-8.358-.852-.919-10.968-.919-10.968s-3.2-4.112-11.778-3.128a10.722,10.722,0,0,1-5.111.032c-.961-.359-5.052-5.653-10.014-4.957a3.091,3.091,0,0,0-1.747.8c-2.885,2.361,7.31,10.892,9.862,11.938C39,189.089,48.18,194.622,55.3,194.435a6.636,6.636,0,0,1,.936-.08h0" fill="#b87b6e"/>
        <path id="Trazado_912806" data-name="Trazado 912806" d="M21.723,172.335c-.132-.255-.418-2.658-1.308-3.252-1.471-1.107-4.2.013-4.076,4.859.038,1.481.071,2.609.115,3.533-.918-2.31-2.217-8.313-3.866-9.263-1.882-1.086-4.878.589-3.985,6.2.148.927.274,1.71.394,2.434,2.688,1.421,5.689,3.181,8.463,4.866,4.705,2.858,8.731,5.478,9.326,5.762a2.9,2.9,0,0,0,1.377-.085,28.987,28.987,0,0,0,2.961-.822c-2.01-1.981-7.724-7.652-8.253-8.594-.387-.688-.666-3.372-1.148-5.641" fill="#b87b6e"/>
        <g id="Grupo_1102716" data-name="Grupo 1102716" opacity="0.4" style="mix-blend-mode: multiply;isolation: isolate">
          <g id="Grupo_1102715" data-name="Grupo 1102715">
            <g id="Grupo_1102714" data-name="Grupo 1102714" clip-path="url(#clip-path-11)">
              <path id="Trazado_912807" data-name="Trazado 912807" d="M56.231,194.354c-8.358-.852-.919-10.968-.919-10.968s-3.2-4.112-11.778-3.128a10.722,10.722,0,0,1-5.111.032c-.961-.359-5.052-5.653-10.014-4.957a3.091,3.091,0,0,0-1.747.8c-2.885,2.361,7.31,10.892,9.862,11.938C39,189.089,48.18,194.622,55.3,194.435a6.636,6.636,0,0,1,.936-.08h0" fill="#b87b6e"/>
              <path id="Trazado_912808" data-name="Trazado 912808" d="M21.723,172.335c-.132-.255-.418-2.658-1.308-3.252-1.471-1.107-4.2.013-4.076,4.859.038,1.481.071,2.609.115,3.533-.918-2.31-2.217-8.313-3.866-9.263-1.882-1.086-4.878.589-3.985,6.2.148.927.274,1.71.394,2.434,2.688,1.421,5.689,3.181,8.463,4.866,4.705,2.858,8.731,5.478,9.326,5.762a2.9,2.9,0,0,0,1.377-.085,28.987,28.987,0,0,0,2.961-.822c-2.01-1.981-7.724-7.652-8.253-8.594-.387-.688-.666-3.372-1.148-5.641" fill="#b87b6e"/>
            </g>
          </g>
        </g>
        <path id="Trazado_912809" data-name="Trazado 912809" d="M27.34,187.893s-7.834-2.05-9.888-2.685-7.262-4.661-9.508-4.659c-1.3.1-3.147,2.417-.35,4.731s14.559,10.133,16.961,10.986,7.441-2.2,7.441-2.2Z" fill="#b87b6e"/>
        <path id="Trazado_912810" data-name="Trazado 912810" d="M57.1,184.12c-5.818-6.412-21.005.561-21.005.561v0a47.142,47.142,0,0,1-4.972,1.892,29.323,29.323,0,0,1-2.961.822,2.926,2.926,0,0,1-1.378.086c-.594-.285-4.62-2.9-9.325-5.763-2.775-1.685-5.775-3.445-8.463-4.866-.654-.347-1.295-.679-1.9-.979C.345,172.4-2.268,176,2.26,179.414c4.63,2.822,18.56,16.21,23.2,17.21,4.6.992,20.039,1.7,20.351,1.725-.148-.054,17.649-2.977,17.649-2.977s-2.891-7.979-6.361-11.252" fill="#b87b6e"/>
        <g id="Grupo_1102719" data-name="Grupo 1102719" style="mix-blend-mode: multiply;isolation: isolate">
          <g id="Grupo_1102718" data-name="Grupo 1102718">
            <g id="Grupo_1102717" data-name="Grupo 1102717" clip-path="url(#clip-path-12)">
              <path id="Trazado_912811" data-name="Trazado 912811" d="M6.178,182.331s1.091-2.2,2.519-1.662,8.077,4.266,8.077,4.266,8.013,2.389,10.011,2.544l-9.667-3.448s-7.565-4.214-8.676-4.4-2.225,2.177-2.264,2.7" fill="#b87b6e"/>
            </g>
          </g>
        </g>
        <path id="Trazado_912812" data-name="Trazado 912812" d="M183.844,105.949s-23.324,43.416-23.72,60.661c-.181,7.647-3.914,23.292-9.472,38.372v.011c-4.106,11.177-9.211,22.055-14.612,29.147-3.742,4.938-7.623,8.041-11.411,8.148-20.986.81-71.821-34.163-71.821-34.163,1.577-8.8,9.733-21.66,9.733-21.66l51.743,20.117,1.066-4.49c6.421-26.779,13.181-49.847,20.907-68.9a25.492,25.492,0,0,1,13.373-13.512Z" fill="#5b5bb5"/>
        <g id="Grupo_1102722" data-name="Grupo 1102722" opacity="0.2" style="mix-blend-mode: multiply;isolation: isolate">
          <g id="Grupo_1102721" data-name="Grupo 1102721">
            <g id="Grupo_1102720" data-name="Grupo 1102720" clip-path="url(#clip-path-13)">
              <path id="Trazado_912813" data-name="Trazado 912813" d="M154.1,155.423l-3.449,49.559v.011c-4.106,11.177-9.211,22.055-14.61,29.147,6.023-22.023,18.059-78.717,18.059-78.717" fill="#606060"/>
            </g>
          </g>
        </g>
        <g id="Grupo_1102725" data-name="Grupo 1102725" opacity="0.2" style="mix-blend-mode: multiply;isolation: isolate">
          <g id="Grupo_1102724" data-name="Grupo 1102724">
            <g id="Grupo_1102723" data-name="Grupo 1102723" clip-path="url(#clip-path-14)">
              <path id="Trazado_912814" data-name="Trazado 912814" d="M125.026,219.145c-2.56-4.558-5.287-9.056-10.742-12.563l1.066-4.49c12.092,6.122,9.676,17.053,9.676,17.053" fill="#606060"/>
            </g>
          </g>
        </g>
        <path id="Trazado_912815" data-name="Trazado 912815" d="M292.859,237.052c-.453-7.582-.084-14.834-3.557-21.94a20.905,20.905,0,0,0-1.5-2.6c2.737.547,4.377.872,4.377.872l71.64-31.332c5.487,2.785,7.23,11.966,7.23,11.966s-66.469,45.264-77.285,45.654c-.295.011-.636.012-1.008.006a13.6,13.6,0,0,0,.105-2.631" fill="#b87b6e"/>
        <path id="Trazado_912816" data-name="Trazado 912816" d="M384.417,176.136a3.1,3.1,0,0,0-1.746-.8c-4.963-.7-9.054,4.6-10.014,4.957a10.727,10.727,0,0,1-5.112-.032c-8.582-.984-11.778,3.128-11.778,3.128s7.44,10.116-.919,10.968h0a6.613,6.613,0,0,1,.936.08c7.119.187,16.3-5.346,18.776-6.361,2.551-1.046,12.746-9.577,9.861-11.938" fill="#b87b6e"/>
        <path id="Trazado_912817" data-name="Trazado 912817" d="M398.49,168.212c-1.648.951-2.948,6.953-3.866,9.264.045-.924.078-2.052.116-3.534.122-4.846-2.6-5.966-4.077-4.858-.889.593-1.176,3-1.308,3.251-.482,2.269-.761,4.953-1.148,5.642-.528.941-6.243,6.612-8.253,8.594a29.514,29.514,0,0,0,2.961.822,2.935,2.935,0,0,0,1.378.085c.594-.284,4.62-2.9,9.325-5.763,2.774-1.685,5.776-3.444,8.463-4.866.12-.723.246-1.506.394-2.433.893-5.614-2.1-7.289-3.985-6.2" fill="#b87b6e"/>
        <g id="Grupo_1102728" data-name="Grupo 1102728" opacity="0.5" style="mix-blend-mode: multiply;isolation: isolate">
          <g id="Grupo_1102727" data-name="Grupo 1102727">
            <g id="Grupo_1102726" data-name="Grupo 1102726" clip-path="url(#clip-path-15)">
              <path id="Trazado_912818" data-name="Trazado 912818" d="M384.417,176.136a3.1,3.1,0,0,0-1.746-.8c-4.963-.7-9.054,4.6-10.014,4.957a10.727,10.727,0,0,1-5.112-.032c-8.582-.984-11.778,3.128-11.778,3.128s7.44,10.116-.919,10.968h0a6.613,6.613,0,0,1,.936.08c7.119.187,16.3-5.346,18.776-6.361,2.551-1.046,12.746-9.577,9.861-11.938" fill="#b87b6e"/>
              <path id="Trazado_912819" data-name="Trazado 912819" d="M398.49,168.212c-1.648.951-2.948,6.953-3.866,9.264.045-.924.078-2.052.116-3.534.122-4.846-2.6-5.966-4.077-4.858-.889.593-1.176,3-1.308,3.251-.482,2.269-.761,4.953-1.148,5.642-.528.941-6.243,6.612-8.253,8.594a29.514,29.514,0,0,0,2.961.822,2.935,2.935,0,0,0,1.378.085c.594-.284,4.62-2.9,9.325-5.763,2.774-1.685,5.776-3.444,8.463-4.866.12-.723.246-1.506.394-2.433.893-5.614-2.1-7.289-3.985-6.2" fill="#b87b6e"/>
            </g>
          </g>
        </g>
        <path id="Trazado_912820" data-name="Trazado 912820" d="M383.739,187.893s7.835-2.05,9.888-2.685,7.262-4.661,9.508-4.659c1.3.1,3.147,2.417.35,4.731s-14.559,10.133-16.961,10.986-7.441-2.2-7.441-2.2Z" fill="#b87b6e"/>
        <path id="Trazado_912821" data-name="Trazado 912821" d="M353.977,184.12c5.818-6.412,21.005.561,21.005.561v0a47.144,47.144,0,0,0,4.972,1.892,29.252,29.252,0,0,0,2.961.822,2.926,2.926,0,0,0,1.378.086c.594-.285,4.62-2.9,9.325-5.763,2.775-1.685,5.775-3.445,8.463-4.866.654-.347,1.3-.679,1.9-.979,6.749-3.47,9.362.131,4.834,3.543-4.63,2.822-18.56,16.21-23.2,17.21-4.6.992-20.04,1.7-20.351,1.725.148-.054-17.65-2.977-17.65-2.977s2.892-7.979,6.362-11.252" fill="#b87b6e"/>
        <g id="Grupo_1102731" data-name="Grupo 1102731" style="mix-blend-mode: multiply;isolation: isolate">
          <g id="Grupo_1102730" data-name="Grupo 1102730">
            <g id="Grupo_1102729" data-name="Grupo 1102729" clip-path="url(#clip-path-16)">
              <path id="Trazado_912822" data-name="Trazado 912822" d="M404.9,182.331s-1.091-2.2-2.519-1.662-8.077,4.266-8.077,4.266-8.013,2.389-10.012,2.544l9.668-3.448s7.565-4.214,8.677-4.4,2.224,2.177,2.263,2.7" fill="#b87b6e"/>
            </g>
          </g>
        </g>
        <path id="Trazado_912823" data-name="Trazado 912823" d="M227.235,105.949s23.323,43.416,23.72,60.661c.181,7.647,3.913,23.292,9.472,38.372v.011c4.106,11.177,9.211,22.055,14.611,29.147,3.743,4.938,7.623,8.041,11.412,8.148,20.986.81,71.821-34.163,71.821-34.163-1.577-8.8-9.733-21.66-9.733-21.66L296.8,206.582l-1.066-4.49c-6.421-26.779-13.182-49.847-20.907-68.9a25.491,25.491,0,0,0-13.374-13.512Z" fill="#5b5bb5"/>
        <g id="Grupo_1102734" data-name="Grupo 1102734" opacity="0.2" style="mix-blend-mode: multiply;isolation: isolate">
          <g id="Grupo_1102733" data-name="Grupo 1102733">
            <g id="Grupo_1102732" data-name="Grupo 1102732" clip-path="url(#clip-path-17)">
              <path id="Trazado_912824" data-name="Trazado 912824" d="M256.979,155.423l3.448,49.559v.011c4.107,11.177,9.212,22.055,14.611,29.147-6.023-22.023-18.059-78.717-18.059-78.717" fill="#606060"/>
            </g>
          </g>
        </g>
        <g id="Grupo_1102737" data-name="Grupo 1102737" opacity="0.2" style="mix-blend-mode: multiply;isolation: isolate">
          <g id="Grupo_1102736" data-name="Grupo 1102736">
            <g id="Grupo_1102735" data-name="Grupo 1102735" clip-path="url(#clip-path-18)">
              <path id="Trazado_912825" data-name="Trazado 912825" d="M286.053,219.145c2.56-4.558,5.287-9.056,10.743-12.563l-1.067-4.49c-12.092,6.122-9.676,17.053-9.676,17.053" fill="#606060"/>
            </g>
          </g>
        </g>
        <path id="Trazado_912826" data-name="Trazado 912826" d="M219.706,234.955l-16.182,21.077-15.011-21.747,10.922-94,.436-3.774h8.89l.413,3.715Z" fill="#ff9845"/>
        <g id="Grupo_1102740" data-name="Grupo 1102740" opacity="0.2" style="mix-blend-mode: multiply;isolation: isolate">
          <g id="Grupo_1102739" data-name="Grupo 1102739">
            <g id="Grupo_1102738" data-name="Grupo 1102738" clip-path="url(#clip-path-19)">
              <path id="Trazado_912827" data-name="Trazado 912827" d="M209.174,140.23c-1.688,2.116-3.583,3.973-5.053,3.973-1.367,0-3.1-1.775-4.686-3.914l.436-3.774h8.89Z" fill="#606060"/>
            </g>
          </g>
        </g>
        <path id="Trazado_912828" data-name="Trazado 912828" d="M194.9,129.1a58.628,58.628,0,0,0,4.919,7.886c1.482,1.9,3.047,3.4,4.306,3.4,1.392,0,3.157-1.65,4.769-3.621a54.013,54.013,0,0,0,4.442-6.547c.269-2.038-3.691-8.3-8.761-8.584-3.042-.169-6.453,2.68-9.675,7.465" fill="#ff9845"/>
        <g id="Grupo_1102743" data-name="Grupo 1102743" style="mix-blend-mode: soft-light;isolation: isolate">
          <g id="Grupo_1102742" data-name="Grupo 1102742">
            <g id="Grupo_1102741" data-name="Grupo 1102741" clip-path="url(#clip-path-20)">
              <path id="Trazado_912829" data-name="Trazado 912829" d="M216.482,205.961,188.74,232.326l-.18,1.55,28.061-26.667Z" fill="#fff"/>
              <path id="Trazado_912830" data-name="Trazado 912830" d="M192.962,195.993l20.27-19.263-.139-1.247-19.951,18.96Z" fill="#fff"/>
              <path id="Trazado_912831" data-name="Trazado 912831" d="M197.364,158.11l12.479-11.859L209.705,145l-12.161,11.556Z" fill="#fff"/>
              <path id="Trazado_912832" data-name="Trazado 912832" d="M196.362,166.732l-.9,7.755,15.847-15.06-.693-6.239Z" fill="#fff"/>
              <path id="Trazado_912833" data-name="Trazado 912833" d="M207.483,122.464l-10.636,10.108a46.717,46.717,0,0,0,2.82,4.217l11.649-11.07a11.886,11.886,0,0,0-3.833-3.255" fill="#fff"/>
              <path id="Trazado_912834" data-name="Trazado 912834" d="M218.086,220.385l-.694-6.24L191.558,238.7l2.875,4.166Z" fill="#fff"/>
              <path id="Trazado_912835" data-name="Trazado 912835" d="M214.7,189.906,214,183.668,191.96,204.615l-.9,7.754Z" fill="#fff"/>
            </g>
          </g>
        </g>
        <g id="Grupo_1102746" data-name="Grupo 1102746" opacity="0.2" style="mix-blend-mode: multiply;isolation: isolate">
          <g id="Grupo_1102745" data-name="Grupo 1102745">
            <g id="Grupo_1102744" data-name="Grupo 1102744" clip-path="url(#clip-path-21)">
              <path id="Trazado_912836" data-name="Trazado 912836" d="M178.918,108.066c3.391,8.689,6.722,22.262,14.637,32.841l11.019-19.271-19.083-16.392Z" fill="#606060"/>
              <path id="Trazado_912837" data-name="Trazado 912837" d="M223.538,105.244l-18.965,16.392,11.191,19.951c7.916-10.578,10.795-25.8,14.186-34.491Z" fill="#606060"/>
            </g>
          </g>
        </g>
        <path id="Trazado_912838" data-name="Trazado 912838" d="M178.918,108.066c3.391,8.689,6.722,18.262,14.637,28.841l10.959-15.272-19.023-20.391Z" fill="#5b5bb5"/>
        <path id="Trazado_912839" data-name="Trazado 912839" d="M223.538,101.244l-19.023,20.391,11.249,15.952c7.916-10.578,11.087-22.279,14.478-30.968Z" fill="#5b5bb5"/>
        <g id="Grupo_1102749" data-name="Grupo 1102749" style="mix-blend-mode: soft-light;isolation: isolate">
          <g id="Grupo_1102748" data-name="Grupo 1102748">
            <g id="Grupo_1102747" data-name="Grupo 1102747" clip-path="url(#clip-path-22)">
              <path id="Trazado_912840" data-name="Trazado 912840" d="M178.918,108.066c3.391,8.689,6.722,18.262,14.637,28.841l10.959-15.272-19.023-20.391Z" fill="#fff"/>
              <path id="Trazado_912841" data-name="Trazado 912841" d="M223.538,101.244l-19.023,20.391,11.249,15.952c7.916-10.578,11.087-22.279,14.478-30.968Z" fill="#fff"/>
            </g>
          </g>
        </g>
        <path id="Trazado_912842" data-name="Trazado 912842" d="M172.524,55.5c.343,25.508,14.261,46.116,31.345,46.745a7.59,7.59,0,0,0,1.076.031c14.568-.185,26.656-14.841,30.159-34.681a67.107,67.107,0,0,0,1.063-12.909c-.34-26.044-14.469-37.744-32.028-37.535-17.585.237-31.955,12.3-31.615,38.349" fill="#b87b6e"/>
        <g id="Grupo_1102752" data-name="Grupo 1102752" style="mix-blend-mode: multiply;isolation: isolate">
          <g id="Grupo_1102751" data-name="Grupo 1102751">
            <g id="Grupo_1102750" data-name="Grupo 1102750" clip-path="url(#clip-path-23)">
              <path id="Trazado_912843" data-name="Trazado 912843" d="M223.74,66.183c.082.528,1.45.755,3.053.505s2.84-.88,2.758-1.409-1.45-.755-3.055-.5-2.838.88-2.756,1.409" fill="#b87b6e"/>
              <path id="Trazado_912844" data-name="Trazado 912844" d="M223.505,69.363c.068-.53,1.43-.792,3.04-.584s2.86.807,2.791,1.337-1.429.792-3.04.584-2.86-.807-2.791-1.337" fill="#b87b6e"/>
              <path id="Trazado_912845" data-name="Trazado 912845" d="M183.98,70.2c-.082-.528-1.449-.754-3.053-.5s-2.839.88-2.757,1.409,1.449.755,3.054.505,2.838-.88,2.756-1.409" fill="#b87b6e"/>
              <path id="Trazado_912846" data-name="Trazado 912846" d="M184.216,67.02c-.069.531-1.429.792-3.04.584s-2.86-.807-2.791-1.337,1.429-.792,3.039-.584,2.86.807,2.792,1.337" fill="#b87b6e"/>
              <path id="Trazado_912847" data-name="Trazado 912847" d="M203.961,75.764c-.066.006-.134.009-.2.01-.835.009-2.852-.509-3.543-5.466-1.13-8.115-.25-12.747-.211-12.94a.549.549,0,0,1,.648-.436.555.555,0,0,1,.438.649c-.01.046-.881,4.665.223,12.575.464,3.339,1.562,4.519,2.435,4.512,1.28,0,2.983-2.353,3.432-6.113a.553.553,0,1,1,1.1.131c-.472,3.957-2.271,6.878-4.319,7.078" fill="#b87b6e"/>
            </g>
          </g>
        </g>
        <path id="Trazado_912848" data-name="Trazado 912848" d="M186.779,51.122a7.794,7.794,0,0,1,6.12-.057,1.573,1.573,0,1,0,1.017-2.978,10.8,10.8,0,0,0-8.572.234c-3.916,1.967-5.164,8.027-4.336,8.293.166.054,3.067-4.149,5.771-5.492" fill="#242754"/>
        <path id="Trazado_912849" data-name="Trazado 912849" d="M226.24,55.185c.82-.287-.583-6.314-4.548-8.178a10.792,10.792,0,0,0-8.575-.014,1.574,1.574,0,1,0,1.094,2.951,7.787,7.787,0,0,1,6.141-.089c2.741,1.288,5.723,5.389,5.888,5.33" fill="#242754"/>
        <path id="Trazado_912850" data-name="Trazado 912850" d="M186.018,63.2a6.919,6.919,0,0,1,1.111-3.982,5.178,5.178,0,0,1,1.611-1.588,4.068,4.068,0,0,1,2.365-.561,4.806,4.806,0,0,1,3.647,2.614,7.3,7.3,0,0,1,.911,4.023,16.609,16.609,0,0,0-2.016-3.266,4.157,4.157,0,0,0-2.69-1.662,3.51,3.51,0,0,0-2.784,1.27,14.3,14.3,0,0,0-2.155,3.152" fill="#242754"/>
        <path id="Trazado_912851" data-name="Trazado 912851" d="M211.411,62.47a6.925,6.925,0,0,1,1.111-3.983,5.175,5.175,0,0,1,1.611-1.587,4.068,4.068,0,0,1,2.365-.561,4.806,4.806,0,0,1,3.647,2.614,7.3,7.3,0,0,1,.911,4.023,16.61,16.61,0,0,0-2.016-3.266,4.157,4.157,0,0,0-2.689-1.662,3.513,3.513,0,0,0-2.785,1.269,14.329,14.329,0,0,0-2.155,3.153" fill="#242754"/>
        <path id="Trazado_912852" data-name="Trazado 912852" d="M193.367,80.048a13.688,13.688,0,0,0,4.958,4.611,9.911,9.911,0,0,0,.986.479,11.932,11.932,0,0,0,10.824-.81c.309-.193.6-.385.865-.588a13.585,13.585,0,0,0,3.928-4.538,31.571,31.571,0,0,1-21.561.846" fill="#fff"/>
        <path id="Trazado_912853" data-name="Trazado 912853" d="M170.69,58.029,176.761,68.1l-1-22.027a4.226,4.226,0,0,0,2.783-2.987,7.153,7.153,0,0,0-1.265-5.127s3.744,1.377,5.587-.161c1.792-1.495.974-4.561.974-4.561s2.708,4.029,6.563,3.833,6.679-4.928,6.679-4.928.719,2.367,2.562,2.657,3.829-2.2,3.829-2.2,3.1,4.156,7.4,4.307,6.862-4.7,6.862-4.7-.366,2.534,1.859,3.323a4.214,4.214,0,0,0,4.053-1.01s-.7,3.971,1.345,6.044c2.989,3.024,5.74.627,5.74.627l1.731,25.151,4.006-5.11.76-19.914s2.824-.542,2.755-2.87-2.527-3.093-2.527-3.093,5.448.076,6.088-4.284-4.381-5.351-4.381-5.351,2.062-.166,1.212-2.745a2.753,2.753,0,0,0-3.082-2.133s6.338-3.928,1.061-8.871-9.808-1.334-9.808-1.334.465-3.429-2.133-4.4-3.665,2.1-3.665,2.1-.628-8.385-7.433-8.245-6.765,4.865-6.765,4.865-1.211-3.077-3.121-2.742-1.994,2.532-1.994,2.532S201.665-.257,196.623.01s-5.464,7.161-5.464,7.161-.959-3.845-5.89-3.1-4.331,5.669-4.331,5.669-5.093-2.411-8.619.483-2.129,7.715-2.129,7.715-3.445-.877-4.3.793,1.579,4.2,1.579,4.2-3.936,1.291-4.435,5.189,5.4,6.683,5.4,6.683-3.625.749-3.515,4.076,4.382,4.87,4.382,4.87Z" fill="#242754"/>
        <path id="Trazado_912854" data-name="Trazado 912854" d="M219.686,96.7h-.062l.012-1c.037-.014,9.222.029,15.41-6.117,3.836-3.809,5.768-9.18,5.744-15.963l1,0c.025,7.066-2.008,12.679-6.045,16.684-6.287,6.237-15.161,6.4-16.059,6.4" fill="#242754"/>
        <g id="Grupo_1102755" data-name="Grupo 1102755" style="mix-blend-mode: soft-light;isolation: isolate">
          <g id="Grupo_1102754" data-name="Grupo 1102754">
            <g id="Grupo_1102753" data-name="Grupo 1102753" clip-path="url(#clip-path-24)">
              <path id="Trazado_912855" data-name="Trazado 912855" d="M219.686,96.7h-.062l.012-1c.037-.014,9.222.029,15.41-6.117,3.836-3.809,5.768-9.18,5.744-15.963l1,0c.025,7.066-2.008,12.679-6.045,16.684-6.287,6.237-15.161,6.4-16.059,6.4" fill="#fff"/>
            </g>
          </g>
        </g>
        <path id="Trazado_912856" data-name="Trazado 912856" d="M222.65,99.156l-5.075.736a3.361,3.361,0,0,1-.964-6.652l5.075-.736a3.361,3.361,0,1,1,.964,6.652" fill="#242754"/>
        <path id="Trazado_912857" data-name="Trazado 912857" d="M163.871,48.764a42.374,42.374,0,0,1,1.473-15.555A34.244,34.244,0,0,1,172.98,19.48a30.038,30.038,0,0,1,6.1-5.087,36.079,36.079,0,0,1,7.1-3.523A53.452,53.452,0,0,1,201.6,7.859,51.168,51.168,0,0,1,217.239,9.41a33.656,33.656,0,0,1,23.147,20.009,43.273,43.273,0,0,1,2.346,7.491,38.2,38.2,0,0,1,.943,7.786l-1,.007a42.934,42.934,0,0,0-3.729-14.651,33,33,0,0,0-8.941-11.962A33.553,33.553,0,0,0,216.714,11.4a49.733,49.733,0,0,0-15.008-1.392,51.408,51.408,0,0,0-14.819,2.784,34.035,34.035,0,0,0-6.736,3.285,30.308,30.308,0,0,0-5.807,4.695,32.675,32.675,0,0,0-7.511,12.9,42.72,42.72,0,0,0-1.968,14.99Z" fill="#606060"/>
        <path id="Trazado_912858" data-name="Trazado 912858" d="M166.744,51.839l-3.885,1.225a7.84,7.84,0,0,1-.864-3.862,2.262,2.262,0,0,1,4.515-.11Z" fill="#242754"/>
        <path id="Trazado_912859" data-name="Trazado 912859" d="M172.866,77.549c-5.09,3.63-10.08-1.04-10.61-3.33a147.894,147.894,0,0,1-2.06-14.87c-.05-.74-.1-1.48-.14-2.21-.04-2,4.58-7.7,10.02-5.78.08.4,1.44,13.05,2.23,20.62.33,3.15.56,5.42.56,5.57" fill="#242754"/>
        <g id="Grupo_1102758" data-name="Grupo 1102758" style="mix-blend-mode: soft-light;isolation: isolate">
          <g id="Grupo_1102757" data-name="Grupo 1102757">
            <g id="Grupo_1102756" data-name="Grupo 1102756" clip-path="url(#clip-path-25)">
              <path id="Trazado_912860" data-name="Trazado 912860" d="M161.1,57.268a8.155,8.155,0,0,1,8.071-5.183l.129,1.433s-5.155-.281-8.2,3.75" fill="#fff"/>
            </g>
          </g>
        </g>
        <g id="Grupo_1102761" data-name="Grupo 1102761" opacity="0.3" style="mix-blend-mode: multiply;isolation: isolate">
          <g id="Grupo_1102760" data-name="Grupo 1102760">
            <g id="Grupo_1102759" data-name="Grupo 1102759" clip-path="url(#clip-path-26)">
              <path id="Trazado_912861" data-name="Trazado 912861" d="M172.866,77.549c-5.09,3.63-10.08-1.04-10.61-3.33a147.894,147.894,0,0,1-2.06-14.87c.51,4.11,2.68,12.55,12.11,12.63.33,3.15.56,5.42.56,5.57" fill="#606060"/>
            </g>
          </g>
        </g>
        <path id="Trazado_912862" data-name="Trazado 912862" d="M176.75,76.707a2.166,2.166,0,0,1-4.31.44l-2.47-24.36a2.163,2.163,0,0,1,1.53-2.29,1.861,1.861,0,0,1,.41-.08,1.62,1.62,0,0,1,.22-.01,2.15,2.15,0,0,1,2.15,1.94l2.08,20.52Z" fill="#606060"/>
        <path id="Trazado_912863" data-name="Trazado 912863" d="M241.274,47.91l3.995.8a7.833,7.833,0,0,0,.442-3.933,2.262,2.262,0,0,0-4.5.378Z" fill="#242754"/>
        <path id="Trazado_912864" data-name="Trazado 912864" d="M237.957,74.129c5.451,3.061,9.909-2.119,10.19-4.453a147.938,147.938,0,0,0,.446-15.006c-.03-.741-.06-1.482-.1-2.212-.176-1.992-5.383-7.162-10.585-4.667-.036.406-.026,13.129,0,20.74.011,3.167.027,5.449.043,5.6" fill="#242754"/>
        <g id="Grupo_1102764" data-name="Grupo 1102764" style="mix-blend-mode: soft-light;isolation: isolate">
          <g id="Grupo_1102763" data-name="Grupo 1102763">
            <g id="Grupo_1102762" data-name="Grupo 1102762" clip-path="url(#clip-path-27)">
              <path id="Trazado_912865" data-name="Trazado 912865" d="M247.466,52.7a8.155,8.155,0,0,0-8.582-4.284l.026,1.439s5.094-.835,8.556,2.845" fill="#fff"/>
            </g>
          </g>
        </g>
        <g id="Grupo_1102767" data-name="Grupo 1102767" opacity="0.3" style="mix-blend-mode: multiply;isolation: isolate">
          <g id="Grupo_1102766" data-name="Grupo 1102766">
            <g id="Grupo_1102765" data-name="Grupo 1102765" clip-path="url(#clip-path-28)">
              <path id="Trazado_912866" data-name="Trazado 912866" d="M237.957,74.129c5.451,3.061,9.909-2.119,10.19-4.453a147.938,147.938,0,0,0,.446-15.006c-.064,4.141-1.313,12.766-10.679,13.861.011,3.167.027,5.449.043,5.6" fill="#606060"/>
            </g>
          </g>
        </g>
        <path id="Trazado_912867" data-name="Trazado 912867" d="M234,73.711a2.166,2.166,0,0,0,4.332-.027L238.169,49.2a2.163,2.163,0,0,0-1.768-2.112,1.8,1.8,0,0,0-.416-.035,1.613,1.613,0,0,0-.22.013,2.151,2.151,0,0,0-1.929,2.161l.142,20.624Z" fill="#606060"/>
      </g>
    </g>
  </g>
</svg>
