<svg xmlns="http://www.w3.org/2000/svg" width="68.657" height="68.656" viewBox="0 0 68.657 68.656">
  <g id="Grupo_1102782" data-name="Grupo 1102782" transform="translate(-180 -3405.219)">
    <g id="Grupo_1101172" data-name="Grupo 1101172" transform="translate(-938.395 83.197)">
      <circle id="Elipse_11528" data-name="Elipse 11528" cx="34.328" cy="34.328" r="34.328" transform="translate(1118.394 3322.022)" fill="#4045ab"/>
      <g id="XMLID_112_" transform="translate(1100.476 3324.869)">
        <g id="XMLID_126_" transform="translate(34.229 0)">
          <path id="XMLID_138_" d="M170.131,36.5,166.3,24.026A24.239,24.239,0,0,0,129.66,3.412a1.18,1.18,0,1,0,1.21,2.026,21.878,21.878,0,0,1,33.07,18.766,1.177,1.177,0,0,0,.052.346l3.879,12.631h-5.294a1.18,1.18,0,0,0-1.18,1.18v6.517a5.638,5.638,0,0,1-5.632,5.632h-9.014a10.436,10.436,0,0,1-7.428-3.077,1.18,1.18,0,0,0-1.669,1.669,12.775,12.775,0,0,0,8.751,3.763l-1.734,6.053a1.18,1.18,0,1,0,2.269.65l1.919-6.7h6.906a8,8,0,0,0,7.992-7.992V39.543h4.123a2.353,2.353,0,0,0,2.25-3.044Z" transform="translate(-117.89 0)" fill="#ee4f47"/>
          <path id="XMLID_139_" d="M36.592,102.923A21.845,21.845,0,0,1,40.023,91.5a1.18,1.18,0,1,0-1.987-1.273,24.2,24.2,0,0,0-3.8,12.657A31.394,31.394,0,0,0,37.5,116.9a19.622,19.622,0,0,1,1.557,13.3l-1.9,7.862a1.18,1.18,0,1,0,2.295.553l1.9-7.862A21.986,21.986,0,0,0,39.61,115.85a28.957,28.957,0,0,1-3.018-12.926Z" transform="translate(-34.229 -79.099)" fill="#ee4f47"/>
          <path id="XMLID_140_" d="M209.219,223.853a1.18,1.18,0,1,0-2.36,0,2.293,2.293,0,0,1-4.586,0,1.18,1.18,0,1,0-2.36,0,4.653,4.653,0,0,0,9.307,0Z" transform="translate(-180.359 -196.394)" fill="#ee4f47"/>
          <path id="XMLID_142_" d="M95.4,55.233a1.18,1.18,0,0,0-1.709,1.628h0A1.18,1.18,0,0,0,95.4,55.233Z" transform="translate(-86.386 -48.392)" fill="#ee4f47"/>
          <path id="XMLID_143_" d="M177.06,169.6a1.18,1.18,0,0,0,.834-2.015,3.855,3.855,0,0,0-5.446,0,1.18,1.18,0,0,0,1.669,1.669,1.492,1.492,0,0,1,2.107,0A1.177,1.177,0,0,0,177.06,169.6Z" transform="translate(-155.832 -146.814)" fill="#ee4f47"/>
          <path id="XMLID_144_" d="M256.591,169.254a1.492,1.492,0,0,1,2.107,0,1.18,1.18,0,1,0,1.669-1.669,3.855,3.855,0,0,0-5.446,0,1.18,1.18,0,1,0,1.669,1.669Z" transform="translate(-228.572 -146.814)" fill="#ee4f47"/>
          <path id="XMLID_147_" d="M140.025,90.343a15.342,15.342,0,1,0-15.342,15.342A15.36,15.36,0,0,0,140.025,90.343Zm-28.324,0a12.982,12.982,0,1,1,12.982,12.982A13,13,0,0,1,111.7,90.343Z" transform="translate(-100.476 -66.15)" fill="#ee4f47"/>
        </g>
      </g>
    </g>
  </g>
</svg>
